<?xml version="1.0" encoding="UTF-8"?>
<svg version="1.1" xmlns="http://www.w3.org/2000/svg" width="500" height="500">
<path d="M0 0 C165 0 330 0 500 0 C500 165 500 330 500 500 C335 500 170 500 0 500 C0 335 0 170 0 0 Z " fill="#0d47a1" transform="translate(0,0)"/>
<path d="M0 0 C1.25135742 0.00418945 2.50271484 0.00837891 3.79199219 0.01269531 C21.84828801 0.22716231 39.87886645 2.26457901 57.25 7.3125 C58.03729492 7.5388916 58.82458984 7.7652832 59.63574219 7.99853516 C85.28409795 15.54949881 108.97408037 27.7949652 129.25 45.3125 C130.04148437 45.99441406 130.83296875 46.67632812 131.6484375 47.37890625 C134.2233495 49.64921509 136.74363647 51.96675291 139.25 54.3125 C140.18714844 55.18390625 141.12429688 56.0553125 142.08984375 56.953125 C175.72303502 88.95342065 196.35226429 136.15891038 198.25 182.3125 C198.30776611 183.67810059 198.30776611 183.67810059 198.36669922 185.07128906 C199.64478923 221.27748059 192.39383345 254.4703004 175.25 286.3125 C174.63640625 287.47910156 174.0228125 288.64570313 173.390625 289.84765625 C165.59394701 304.13619629 155.53278838 316.63840104 144.25 328.3125 C142.94289063 329.69695312 142.94289063 329.69695312 141.609375 331.109375 C109.01369428 364.84876381 60.63047707 386.50524569 13.6640625 387.48046875 C-35.93270394 387.8717983 -82.97107013 374.72586464 -120.75 341.3125 C-121.25837402 340.86438965 -121.76674805 340.4162793 -122.29052734 339.95458984 C-145.83549121 319.0798919 -161.97943215 294.95367537 -174.75 266.3125 C-175.05566895 265.63670898 -175.36133789 264.96091797 -175.67626953 264.26464844 C-183.8360333 245.86546429 -187.64245865 224.34892996 -188.75 204.3125 C-188.78851074 203.64299316 -188.82702148 202.97348633 -188.86669922 202.28369141 C-190.5477535 167.24918211 -182.30825941 133.04282369 -165.75 102.3125 C-165.43450195 101.71630859 -165.11900391 101.12011719 -164.79394531 100.50585938 C-147.37770112 67.76692987 -120.50973605 42.82643529 -88.75 24.3125 C-88.13463379 23.94382812 -87.51926758 23.57515625 -86.88525391 23.1953125 C-68.60178223 12.28164413 -47.5882273 6.10523969 -26.75 2.3125 C-25.74485352 2.12776123 -24.73970703 1.94302246 -23.70410156 1.75268555 C-15.76699065 0.40447874 -8.04408685 -0.03745535 0 0 Z " fill="#ffffff" transform="translate(246.75,7.6875)"/>
<path d="M0 0 C-0.59612355 4.81246054 -2.04264444 8.93794118 -3.96484375 13.3515625 C-4.2693042 14.06608078 -4.57376465 14.78059906 -4.88745117 15.51676941 C-5.54984986 17.07016949 -6.21506887 18.62236928 -6.88278198 20.17349243 C-8.71785917 24.4388084 -10.52987068 28.71391762 -12.34375 32.98828125 C-12.7254686 33.88659164 -13.10718719 34.78490204 -13.50047302 35.71043396 C-17.73961444 45.7062932 -21.84182474 55.75721134 -25.9375 65.8125 C-27.45370602 69.5315444 -28.97068448 73.2502729 -30.48828125 76.96875 C-30.8632222 77.88746384 -31.23816315 78.80617767 -31.62446594 79.75273132 C-35.58784868 89.45460113 -39.60333163 99.13467792 -43.625 108.8125 C-49.11617758 122.02835389 -54.57693058 135.25604947 -60 148.5 C-65.46573463 161.84767768 -70.96823244 175.17955538 -76.5 188.5 C-89.14014453 218.94282439 -101.62166927 249.44984228 -114 280 C-118.65387121 276.23262069 -122.66484168 272.37273482 -126.3125 267.625 C-127.01125244 266.72044067 -127.01125244 266.72044067 -127.72412109 265.79760742 C-144.33041933 243.90952918 -155.20935916 219.06236181 -160 192 C-160.20496094 190.95199219 -160.40992188 189.90398437 -160.62109375 188.82421875 C-167.50310656 147.67452836 -157.28783037 103.63303981 -133.125 69.625 C-106.27940148 33.19360565 -67.97204942 8.09237542 -23 0.75 C-15.33421587 -0.2591217 -7.71314956 -0.18030739 0 0 Z " fill="#0d47a1" transform="translate(249,37)"/>
<path d="M0 0 C5.02121055 7.53181582 4.69339149 18.20517693 5 27 C5.03399902 27.96180176 5.06799805 28.92360352 5.10302734 29.91455078 C5.94485905 58.04540406 0.87630367 82.62050175 -11 108 C-11.7425 109.60875 -11.7425 109.60875 -12.5 111.25 C-30.51806294 148.85291397 -65.31729038 178.04575508 -104.32421875 191.94140625 C-119.97140369 197.27221761 -135.40304388 200.79172759 -152 200 C-151.27239945 194.9524165 -149.31908623 190.44102919 -147.43115234 185.74023438 C-147.06081438 184.80835297 -146.69047642 183.87647156 -146.30891609 182.91635132 C-145.0720435 179.80715891 -143.82903064 176.70046005 -142.5859375 173.59375 C-141.70665027 171.38754607 -140.82771064 169.18120359 -139.94909668 166.97473145 C-137.58566609 161.04278579 -135.21675917 155.11304107 -132.84676361 149.18371582 C-130.88880568 144.28309146 -128.9342512 139.38111293 -126.97970772 134.47912598 C-117.45204488 110.58520529 -107.8955225 86.70296686 -98.28125 62.84375 C-97.91382313 61.93182388 -97.54639626 61.01989777 -97.16783524 60.08033752 C-93.74796617 51.59360859 -90.32482716 43.10822141 -86.89096451 34.62714386 C-85.66544282 31.59940503 -84.44177662 28.57091833 -83.21839905 25.54231262 C-82.39477293 23.50571119 -81.56824755 21.4703037 -80.74157715 19.43493652 C-80.25821899 18.23824341 -79.77486084 17.04155029 -79.27685547 15.80859375 C-78.85806122 14.77532959 -78.43926697 13.74206543 -78.00778198 12.67749023 C-77.17027051 10.45237724 -76.506624 8.31851474 -76 6 C-75.16141449 5.99413376 -74.32282898 5.98826752 -73.45883179 5.98222351 C-65.54322871 5.92424074 -57.62790612 5.85213207 -49.71257591 5.76428509 C-45.64352792 5.71962022 -41.57457914 5.68035574 -37.50537109 5.65356445 C-33.57592069 5.62749242 -29.64685291 5.58706296 -25.71763992 5.53681374 C-24.22104285 5.52017127 -22.72437963 5.50864068 -21.22770309 5.50238609 C-19.12584384 5.49271599 -17.02495763 5.46462473 -14.92333984 5.43237305 C-13.72865082 5.42126999 -12.53396179 5.41016693 -11.30307007 5.39872742 C-6.66588927 4.83895391 -3.30459282 3.30459282 0 0 Z " fill="#0d47a1" transform="translate(411,165)"/>
<path d="M0 0 C0.51052917 0.16076523 1.02105835 0.32153046 1.54705811 0.48716736 C4.80599476 1.16850804 7.91701047 1.1656787 11.24707031 1.20532227 C11.96941864 1.21522186 12.69176697 1.22512146 13.43600464 1.23532104 C15.81667842 1.26683484 18.19737213 1.2916533 20.578125 1.31640625 C22.23151154 1.33698453 23.88489291 1.35798123 25.53826904 1.37937927 C29.88488583 1.43450974 34.23154938 1.48395873 38.57824707 1.53222656 C43.0157486 1.58250757 47.45318242 1.63815916 51.890625 1.69335938 C60.5936927 1.80083053 69.29681715 1.90229991 78 2 C76.07316965 8.81245491 73.78894528 15.36939653 71.12475586 21.92602539 C70.74620484 22.86790679 70.36765383 23.80978819 69.97763157 24.78021145 C68.72751787 27.88771569 67.47120229 30.99267214 66.21484375 34.09765625 C65.32459462 36.30709096 64.43475152 38.5166893 63.54528809 40.72644043 C61.65802237 45.41294229 59.76813348 50.09837407 57.87619019 54.7829895 C54.93096205 62.07635758 51.99325729 69.37274064 49.05688477 76.66967773 C41.52009669 95.39532533 33.97625438 114.11811706 26.40997982 132.83187199 C23.90906049 139.01812338 21.41329035 145.20643204 18.92226505 151.39667416 C17.29380575 155.44226772 15.65775267 159.48466772 14.01535606 163.52462196 C12.79372194 166.53578038 11.58325265 169.55142368 10.37109375 172.56640625 C9.94920776 173.59689087 9.52732178 174.62737549 9.09265137 175.68908691 C6.68090592 181.72618292 5.02107468 187.57652301 4 194 C-21.78905036 193.85605081 -49.71349951 181.4304478 -70 166 C-69.41694092 165.19087158 -68.83388184 164.38174316 -68.2331543 163.5480957 C-65.65531188 159.67061612 -63.98674488 155.54254023 -62.26953125 151.23046875 C-61.92205338 150.37420898 -61.5745755 149.51794922 -61.21656799 148.63574219 C-60.46761661 146.78815553 -59.72167724 144.93934559 -58.97845459 143.08944702 C-57.38626038 139.12663125 -55.77954512 135.16975569 -54.17364502 131.21247864 C-53.34278937 129.16475296 -52.51267778 127.11672523 -51.68328857 125.06840515 C-47.63826813 115.08397575 -43.51335741 105.1335188 -39.375 95.1875 C-33.83883079 81.86883658 -28.33935262 68.53578435 -22.875 55.1875 C-15.33034538 36.75806297 -7.6823158 18.37242524 0 0 Z " fill="#0d47a1" transform="translate(226,170)"/>
<path d="M0 0 C23.56589187 1.80928153 47.90566379 13.42192807 67 27 C67.55719727 27.39493652 68.11439453 27.78987305 68.68847656 28.19677734 C94.2761131 46.63904795 114.89602218 72.38939249 126 102 C126 102.33 126 102.66 126 103 C124.93925766 103.01030746 123.87851532 103.02061493 122.78562927 103.03123474 C109.33620882 103.16237517 95.8868408 103.29843865 82.4375 103.4375 C81.36902454 103.44852123 80.30054909 103.45954247 79.19969559 103.47089767 C52.81843209 103.74395272 26.44310954 104.05239128 0.06787109 104.69287109 C-13.95720108 105.02990992 -27.97076202 105.12202602 -42 105 C-36.2052222 90.37457736 -30.29373261 75.79993625 -24.3125 61.25 C-19.04511306 48.43103314 -13.78353586 35.60977369 -8.56307983 22.77160645 C-7.90017051 21.14238653 -7.23630308 19.5135561 -6.57144165 17.88513184 C-5.65049317 15.62889709 -4.73298868 13.37129254 -3.81640625 11.11328125 C-3.54427307 10.4484523 -3.27213989 9.78362335 -2.99176025 9.09864807 C-1.77835671 6.09889934 -0.66093058 3.17316407 0 0 Z " fill="#0d47a1" transform="translate(279,39)"/>
<path d="M0 0 C5.28 0 10.56 0 16 0 C16 25.74 16 51.48 16 78 C10.72 78 5.44 78 0 78 C-0.33 76.68 -0.66 75.36 -1 74 C-1.928125 74.639375 -2.85625 75.27875 -3.8125 75.9375 C-9.42036734 79.56612004 -14.49006617 79.51058305 -21 79 C-27.36510248 77.39097781 -32.16750203 73.62050121 -35.8125 68.25 C-39.50490221 61.20405527 -39.27817499 51.99991983 -37.3359375 44.40234375 C-34.57061265 38.16232812 -29.450127 34.36118167 -23.625 31.125 C-16.14911145 28.80489666 -10.74304648 29.64008686 -3.75 33.02734375 C-2 34 -2 34 -1 35 C-0.67 23.45 -0.34 11.9 0 0 Z " fill="#ffffff" transform="translate(178,403)"/>
<path d="M0 0 C5.63829901 3.85316282 10.11014808 8.3092199 12 15 C13.26281016 23.00982443 11.61873254 29.36857041 7 36 C2.13239038 41.48039658 -3.89637093 44.95920252 -11.26953125 45.46875 C-12.78350447 45.50291839 -14.29819433 45.51267806 -15.8125 45.5 C-16.60495117 45.49427979 -17.39740234 45.48855957 -18.21386719 45.48266602 C-25.73749966 45.2538132 -31.25615597 43.45283094 -36.859375 38.28515625 C-42.85375899 31.76269558 -43.63445925 25.36399853 -43.37109375 16.671875 C-42.7537829 10.56374662 -40.56777253 7.3870977 -36.16796875 3.296875 C-25.45501487 -5.40872066 -12.19828336 -6.96164656 0 0 Z " fill="#ffffff" transform="translate(245,437)"/>
<path d="M0 0 C4.95 0 9.9 0 15 0 C15 11.55 15 23.1 15 35 C18.3 33.02 21.6 31.04 25 29 C31.44033512 27.99369764 37.44749075 29.52750597 43 33 C46.62384597 36.2452395 49.3199904 39.20202901 49.68115234 44.19116211 C49.68021623 45.72021846 49.64712917 47.24951202 49.5859375 48.77734375 C49.57744781 49.58869278 49.56895813 50.40004181 49.56021118 51.23597717 C49.52686369 53.80455459 49.45163079 56.36988652 49.375 58.9375 C49.34487579 60.6881054 49.31750429 62.43876047 49.29296875 64.18945312 C49.23225235 68.46186363 49.11484501 72.72734016 49 77 C43.72 77 38.44 77 33 77 C32.97421875 74.79699219 32.9484375 72.59398437 32.921875 70.32421875 C32.88345603 68.18940479 32.83829586 66.05483252 32.79248047 63.92016602 C32.76426459 62.43721058 32.74305298 60.95410457 32.72900391 59.47094727 C32.7075808 57.33792003 32.66094218 55.20670394 32.609375 53.07421875 C32.58842773 51.79119873 32.56748047 50.50817871 32.54589844 49.1862793 C32.29677938 45.95669632 32.29677938 45.95669632 30.18066406 44.08520508 C26.93935575 42.47217155 24.5625802 42.55467747 21 43 C17.94776858 45.22937279 17.09415535 46.44668993 16.45410156 50.20800781 C16.42268066 52.06184082 16.42268066 52.06184082 16.390625 53.953125 C16.37408875 54.61334656 16.35755249 55.27356812 16.34051514 55.95379639 C16.29211549 58.05262626 16.27068481 60.15073222 16.25 62.25 C16.22183317 63.6771196 16.19190472 65.10420559 16.16015625 66.53125 C16.08305351 70.02116347 16.04247193 73.50880769 16 77 C10.72 77 5.44 77 0 77 C0 51.59 0 26.18 0 0 Z " fill="#ffffff" transform="translate(399,404)"/>
<path d="M0 0 C6.63932998 3.62145272 10.3133098 8.43992939 12.6875 15.5625 C12.6875 18.5325 12.6875 21.5025 12.6875 24.5625 C1.4675 24.5625 -9.7525 24.5625 -21.3125 24.5625 C-18.8922509 30.19356761 -18.8922509 30.19356761 -16.3125 32.5625 C-10.02272312 33.34239182 -5.67475451 32.93305998 -0.3125 29.5625 C4.02075081 30.48446826 7.77664121 32.51395492 11.6875 34.5625 C7.75776835 41.21281509 3.2058549 44.44682767 -4.3125 46.5625 C-13.95475799 47.42381539 -21.36906558 46.85812294 -29.5 41.4375 C-34.04823599 37.22570887 -36.93152706 32.53121367 -37.7265625 26.3359375 C-37.95984453 17.11069362 -36.27651219 11.04980731 -30.0625 4.13671875 C-21.60837906 -3.46821594 -10.14652936 -4.5798549 0 0 Z " fill="#ffffff" transform="translate(334.3125,435.4375)"/>
<path d="M0 0 C4.31901581 2.42666352 6.69687839 5.54766642 8.2734375 10.27734375 C8.35838478 12.93628482 8.38938546 15.56819752 8.37109375 18.2265625 C8.3696788 18.99917923 8.36826385 19.77179596 8.36680603 20.56782532 C8.36121216 23.03353764 8.34866083 25.4991589 8.3359375 27.96484375 C8.33092171 29.63736848 8.32635894 31.30989463 8.32226562 32.98242188 C8.31209597 37.08079241 8.29251944 41.17896623 8.2734375 45.27734375 C2.9934375 45.27734375 -2.2865625 45.27734375 -7.7265625 45.27734375 C-7.75234375 43.158125 -7.778125 41.03890625 -7.8046875 38.85546875 C-7.84313137 36.79674149 -7.88828345 34.73826273 -7.93408203 32.6796875 C-7.96225861 31.25207438 -7.98348977 29.82430622 -7.99755859 28.39648438 C-8.01903642 26.34034043 -8.06570224 24.28605373 -8.1171875 22.23046875 C-8.13813477 20.99458008 -8.15908203 19.75869141 -8.18066406 18.48535156 C-8.82084985 14.72325796 -9.68237615 13.51575624 -12.7265625 11.27734375 C-16.18384608 10.52723008 -16.18384608 10.52723008 -19.7265625 11.27734375 C-23.00938825 13.86117388 -24.54081982 15.36761037 -25.38598633 19.50708008 C-25.40169678 20.6958374 -25.41740723 21.88459473 -25.43359375 23.109375 C-25.47709961 25.04780273 -25.47709961 25.04780273 -25.52148438 27.02539062 C-25.5278727 28.38020594 -25.53372538 29.73502388 -25.5390625 31.08984375 C-25.56221998 32.46423215 -25.58758795 33.83858519 -25.61523438 35.21289062 C-25.67408537 38.56739737 -25.70319052 41.92240221 -25.7265625 45.27734375 C-31.0065625 45.27734375 -36.2865625 45.27734375 -41.7265625 45.27734375 C-41.7265625 30.09734375 -41.7265625 14.91734375 -41.7265625 -0.72265625 C-36.4465625 -0.72265625 -31.1665625 -0.72265625 -25.7265625 -0.72265625 C-25.7265625 0.59734375 -25.7265625 1.91734375 -25.7265625 3.27734375 C-25.25605469 2.92800781 -24.78554687 2.57867187 -24.30078125 2.21875 C-23.67816406 1.76371094 -23.05554688 1.30867188 -22.4140625 0.83984375 C-21.79917969 0.38738281 -21.18429688 -0.06507813 -20.55078125 -0.53125 C-13.98388135 -4.82012467 -6.6707096 -2.88379907 0 0 Z " fill="#ffffff" transform="translate(124.7265625,435.72265625)"/>
<path d="M0 0 C5.28 0 10.56 0 16 0 C16 5.61 16 11.22 16 17 C19.3 17 22.6 17 26 17 C26 21.29 26 25.58 26 30 C22.7 30 19.4 30 16 30 C16.33 36.27 16.66 42.54 17 49 C20.79788698 50.12126781 20.79788698 50.12126781 24 50 C24.50757862 51.41396902 25.00574925 52.83131729 25.5 54.25 C25.7784375 55.03890625 26.056875 55.8278125 26.34375 56.640625 C27 59 27 59 27 63 C21.60854602 66.33948269 15.08882116 65.68596475 9 65 C5.31874857 63.43764739 3.59267564 60.87341673 1.3671875 57.59375 C-0.65267452 52.28439839 -0.31670343 47.25031835 -0.1875 41.625 C-0.17396484 40.50738281 -0.16042969 39.38976562 -0.14648438 38.23828125 C-0.11127164 35.49168789 -0.06202096 32.74609711 0 30 C-2.31 30 -4.62 30 -7 30 C-7 26.04 -7 22.08 -7 18 C-4.69 18 -2.38 18 0 18 C0 12.06 0 6.12 0 0 Z " fill="#ffffff" transform="translate(267,417)"/>
<path d="M0 0 C-1.2213882 4.03997636 -2.35380456 7.67950637 -5 11 C-7.9609375 11.27734375 -7.9609375 11.27734375 -11.375 10.9375 C-15.85374397 10.65390082 -15.85374397 10.65390082 -19.96484375 12.0703125 C-22.32540737 14.68403802 -23.01165364 17.07251156 -23.5625 20.5 C-22.9051093 24.59043104 -21.59081908 26.79957644 -19 30 C-14.77971101 32.1101445 -9.42006486 31.24871787 -5 30 C-4.16180842 31.62249941 -3.3295884 33.24808497 -2.5 34.875 C-2.0359375 35.77992188 -1.571875 36.68484375 -1.09375 37.6171875 C0 40 0 40 0 42 C-7.19581819 46.11189611 -15.40029551 46.07686625 -23.4375 44.53125 C-30.43371335 42.23561749 -35.35136261 37.65875436 -38.9375 31.3125 C-41.75698115 25.07404669 -42.42017097 19.08462018 -40.1484375 12.55078125 C-36.70731599 5.65683374 -31.22897334 0.14806418 -24.125 -2.9375 C-15.34639042 -5.68081549 -8.10555461 -3.86307284 0 0 Z " fill="#ffffff" transform="translate(392,437)"/>
<path d="M0 0 C5.28 0 10.56 0 16 0 C16 24.42 16 48.84 16 74 C10.72 74 5.44 74 0 74 C0 49.58 0 25.16 0 0 Z " fill="#ffffff" transform="translate(56,407)"/>
<path d="M0 0 C3.62416894 1.64734952 6.12851416 3.45402683 8 7 C8.55685482 11.2957372 8.28425982 13.46193678 6.25 17.3125 C3.26226793 20.88117997 1.68823369 21.77979561 -2.875 22.375 C-6.87153796 21.89541545 -8.90459308 20.53260567 -12 18 C-14.35242347 14.79214982 -14.4684209 11.90350748 -14 8 C-10.35880575 1.47096204 -7.53718616 -0.64975743 0 0 Z " fill="#0d47a1" transform="translate(232,447)"/>
<path d="M0 0 C5.02047717 0.33469848 7.32965418 1.64027474 10.625 5.375 C12.24003276 9.50230595 12.06788631 13.0280289 10.75 17.25 C7.75009243 20.32682827 5.23300252 22.11817755 0.9375 22.5 C-2.66995442 22.2170624 -4.37754237 21.40434322 -7.25 19.25 C-10.06454595 15.02818108 -10.05684081 11.20969791 -9.25 6.25 C-6.8125 3.1875 -6.8125 3.1875 -4.25 1.25 C-3.25 0.25 -3.25 0.25 0 0 Z " fill="#0d47a1" transform="translate(166.25,446.75)"/>
<path d="M0 0 C3 1.8125 3 1.8125 5 4 C5 4.99 5 5.98 5 7 C-0.61 7 -6.22 7 -12 7 C-11.67 5.35 -11.34 3.7 -11 2 C-7.31028744 -0.45980837 -4.28401332 -0.69177647 0 0 Z " fill="#0d47a1" transform="translate(326,444)"/>
</svg>